<svg width="41" height="70" viewBox="0 0 41 70" fill="none" xmlns="http://www.w3.org/2000/svg">
<g id="SVG" clip-path="url(#clip0_1_99)">
<path id="Vector" d="M20.75 14.75C15.2547 14.75 14.5636 14.7753 12.4045 14.8715C10.2453 14.9727 8.77466 15.3119 7.48625 15.8131C6.1348 16.3214 4.91068 17.1188 3.89947 18.1495C2.86944 19.1612 2.07218 20.3852 1.56313 21.7362C1.06194 23.0221 0.720219 24.4953 0.6215 26.6469C0.525312 28.8111 0.5 29.4996 0.5 35.0025C0.5 40.5004 0.525312 41.1889 0.6215 43.3481C0.72275 45.5047 1.06194 46.9753 1.56313 48.2637C2.08203 49.5952 2.77306 50.7241 3.89947 51.8505C5.02334 52.9769 6.15228 53.6705 7.48372 54.1869C8.77466 54.6881 10.2428 55.0298 12.3994 55.1285C14.5611 55.2247 15.2496 55.25 20.75 55.25C26.2504 55.25 26.9364 55.2247 29.0981 55.1285C31.2522 55.0273 32.7279 54.6881 34.0163 54.1869C35.3669 53.6783 36.5901 52.8809 37.6005 51.8505C38.7269 50.7241 39.418 49.5952 39.9369 48.2637C40.4355 46.9753 40.7773 45.5047 40.8785 43.3481C40.9747 41.1889 41 40.5004 41 35C41 29.4996 40.9747 28.8111 40.8785 26.6494C40.7773 24.4953 40.4355 23.0221 39.9369 21.7362C39.4279 20.3851 38.6306 19.1611 37.6005 18.1495C36.5896 17.1184 35.3654 16.321 34.0137 15.8131C32.7228 15.3119 31.2496 14.9702 29.0955 14.8715C26.9338 14.7753 26.2479 14.75 20.7449 14.75H20.7525M18.9351 18.4001H20.7525C26.1593 18.4001 26.7997 18.4178 28.9335 18.5165C30.9079 18.6051 31.9812 18.9367 32.695 19.2126C33.6391 19.5796 34.315 20.0201 35.0237 20.7288C35.7325 21.4376 36.1704 22.1109 36.5374 23.0576C36.8158 23.7688 37.1449 24.8421 37.2335 26.8165C37.3322 28.9503 37.3525 29.5907 37.3525 34.9949C37.3525 40.3992 37.3322 41.0421 37.2335 43.1759C37.1449 45.1503 36.8133 46.221 36.5374 46.9348C36.2128 47.8141 35.6946 48.6091 35.0212 49.2611C34.3124 49.9698 33.6391 50.4077 32.6924 50.7747C31.9837 51.0532 30.9104 51.3822 28.9335 51.4734C26.7997 51.5696 26.1593 51.5923 20.7525 51.5923C15.3458 51.5923 14.7028 51.5696 12.569 51.4734C10.5946 51.3822 9.52391 51.0532 8.81009 50.7747C7.93048 50.4506 7.13473 49.9333 6.48134 49.2611C5.8074 48.6081 5.28842 47.8123 4.96259 46.9323C4.68669 46.221 4.35509 45.1478 4.2665 43.1734C4.17031 41.0396 4.15006 40.3992 4.15006 34.9899C4.15006 29.5831 4.17031 28.9453 4.2665 26.8114C4.35763 24.837 4.68669 23.7638 4.96513 23.05C5.33216 22.1058 5.77259 21.43 6.48134 20.7212C7.19009 20.0125 7.86341 19.5746 8.81009 19.2075C9.52391 18.9291 10.5946 18.6 12.569 18.5089C14.4371 18.4228 15.161 18.3975 18.9351 18.395V18.4001ZM31.561 21.7616C30.2198 21.7616 29.131 22.8504 29.131 24.1916C29.131 25.5327 30.2198 26.6216 31.561 26.6216C32.9021 26.6216 33.991 25.5327 33.991 24.1916C33.991 22.8504 32.9021 21.7616 31.561 21.7616ZM20.7525 24.6016C16.9984 24.5431 13.5042 26.5123 11.61 29.754C9.71583 32.9958 9.71583 37.0068 11.61 40.2485C13.5042 43.4902 16.9984 45.4595 20.7525 45.4009C26.4328 45.3123 30.9912 40.6823 30.9912 35.0013C30.9912 29.3203 26.4328 24.6902 20.7525 24.6016ZM20.7525 28.2492C24.4784 28.2492 27.5034 31.2741 27.5034 35C27.5034 38.7259 24.4784 41.7508 20.7525 41.7508C17.0266 41.7508 14.0017 38.7259 14.0017 35C14.0017 31.2741 17.0266 28.2492 20.7525 28.2492Z" fill="black"/>
</g>
<defs>
<clipPath id="clip0_1_99">
<rect width="40.5" height="70" fill="white" transform="translate(0.5)"/>
</clipPath>
</defs>
</svg>
