<svg width="41" height="70" viewBox="0 0 41 70" fill="none" xmlns="http://www.w3.org/2000/svg">
<g id="SVG">
<path id="Vector" fill-rule="evenodd" clip-rule="evenodd" d="M40 35C40 46.0457 31.0457 55 20 55C8.95431 55 0 46.0457 0 35C0 23.9543 8.95431 15 20 15C31.0457 15 40 23.9543 40 35ZM20.7167 29.7649C18.7714 30.574 14.8836 32.2487 9.05315 34.7889C8.10639 35.1654 7.61043 35.5337 7.56528 35.8938C7.48898 36.5025 8.25118 36.7422 9.28911 37.0685C9.4303 37.1129 9.57659 37.1589 9.72656 37.2077C10.7477 37.5396 12.1214 37.928 12.8355 37.9434C13.4832 37.9574 14.2062 37.6903 15.0044 37.1422C20.4519 33.465 23.264 31.6063 23.4405 31.5663C23.5651 31.538 23.7377 31.5025 23.8546 31.6064C23.9715 31.7104 23.9601 31.9072 23.9477 31.96C23.8722 32.2819 20.8802 35.0635 19.3319 36.503C18.8492 36.9517 18.5068 37.27 18.4368 37.3427C18.28 37.5056 18.1202 37.6596 17.9666 37.8077C17.0179 38.7222 16.3065 39.408 18.006 40.528C18.8227 41.0662 19.4763 41.5112 20.1283 41.9552C20.8403 42.4401 21.5505 42.9238 22.4694 43.5261C22.7035 43.6796 22.927 43.839 23.1448 43.9942C23.9735 44.585 24.7179 45.1157 25.6376 45.0311C26.1721 44.9819 26.7241 44.4794 27.0045 42.9806C27.667 39.4386 28.9694 31.7641 29.2704 28.6016C29.2967 28.3245 29.2636 27.97 29.2369 27.8143C29.2103 27.6586 29.1546 27.4368 28.9523 27.2727C28.7127 27.0782 28.3427 27.0372 28.1773 27.0401C27.425 27.0534 26.2709 27.4547 20.7167 29.7649Z" fill="black"/>
</g>
</svg>
