<svg width="41" height="70" viewBox="0 0 41 70" fill="none" xmlns="http://www.w3.org/2000/svg">
<g id="SVG" clip-path="url(#clip0_1_105)">
<path id="Vector" d="M37.5391 15H3.45312C1.82031 15 0.5 16.2891 0.5 17.8828V52.1094C0.5 53.7031 1.82031 55 3.45312 55H37.5391C39.1719 55 40.5 53.7031 40.5 52.1172V17.8828C40.5 16.2891 39.1719 15 37.5391 15ZM12.3672 49.0859H6.42969V29.9922H12.3672V49.0859ZM9.39844 27.3906C7.49219 27.3906 5.95312 25.8516 5.95312 23.9531C5.95312 22.0547 7.49219 20.5156 9.39844 20.5156C11.2969 20.5156 12.8359 22.0547 12.8359 23.9531C12.8359 25.8438 11.2969 27.3906 9.39844 27.3906ZM34.5859 49.0859H28.6562V39.8047C28.6562 37.5938 28.6172 34.7422 25.5703 34.7422C22.4844 34.7422 22.0156 37.1562 22.0156 39.6484V49.0859H16.0938V29.9922H21.7812V32.6016H21.8594C22.6484 31.1016 24.5859 29.5156 27.4688 29.5156C33.4766 29.5156 34.5859 33.4688 34.5859 38.6094V49.0859Z" fill="black"/>
</g>
<defs>
<clipPath id="clip0_1_105">
<rect width="40.5" height="70" fill="white" transform="translate(0.5)"/>
</clipPath>
</defs>
</svg>
