<svg width="41" height="70" viewBox="0 0 41 70" fill="none" xmlns="http://www.w3.org/2000/svg">
<g id="SVG" clip-path="url(#clip0_1_108)">
<path id="Vector" d="M34.4275 20.6377C30.6769 16.8523 25.5636 14.7311 20.2348 14.75C9.18084 14.75 0.172125 23.7562 0.162 34.8127C0.162 38.3539 1.08844 41.7989 2.83753 44.8491L0 55.25L10.6414 52.4606C13.5852 54.0626 16.8833 54.9024 20.2348 54.9032H20.2449C31.3014 54.9032 40.3076 45.897 40.3177 34.8304C40.3229 29.5033 38.2017 24.3946 34.425 20.6377M20.2348 51.5063C17.2454 51.5073 14.3109 50.7028 11.7399 49.1775L11.1324 48.813L4.8195 50.4685L6.50531 44.3099L6.11044 43.6746C4.43932 41.0176 3.55551 37.9414 3.56147 34.8026C3.56147 25.6243 11.0464 18.1368 20.2449 18.1368C24.6711 18.1289 28.9173 19.8884 32.0406 23.0247C35.1748 26.1487 36.9316 30.395 36.9208 34.8203C36.9107 44.0315 29.4258 51.5063 20.2348 51.5063ZM29.3853 39.0171C28.8866 38.7665 26.4237 37.554 25.9605 37.3819C25.4998 37.2174 25.1632 37.1313 24.8341 37.6325C24.4974 38.1312 23.5356 39.2677 23.247 39.5942C22.9584 39.9309 22.6597 39.9688 22.1586 39.7208C21.6599 39.4677 20.0424 38.9412 18.1288 37.2275C16.6354 35.8986 15.6355 34.2533 15.3368 33.7546C15.0483 33.2534 15.309 32.9851 15.5596 32.7345C15.7798 32.5118 16.0583 32.1473 16.3088 31.8587C16.562 31.5702 16.6455 31.3575 16.81 31.0234C16.9746 30.6842 16.8961 30.3957 16.7721 30.1451C16.6455 29.8945 15.6457 27.4214 15.2229 26.4241C14.8179 25.4395 14.4053 25.5762 14.0965 25.5635C13.808 25.5458 13.4713 25.5458 13.1347 25.5458C12.6207 25.5586 12.1354 25.7852 11.7956 26.171C11.3349 26.6722 10.0465 27.8847 10.0465 30.3577C10.0465 32.8307 11.8437 35.2076 12.0968 35.5442C12.3449 35.8809 15.6254 40.9408 20.6601 43.1177C21.8498 43.6366 22.7863 43.9429 23.5178 44.1758C24.7202 44.5605 25.8061 44.5023 26.6718 44.3783C27.6337 44.2315 29.6359 43.1633 30.0586 41.9913C30.4737 40.8168 30.4737 39.8144 30.3472 39.6043C30.2231 39.3917 29.8865 39.2677 29.3853 39.0171Z" fill="black"/>
</g>
<defs>
<clipPath id="clip0_1_108">
<rect width="40.5" height="70" fill="white"/>
</clipPath>
</defs>
</svg>
